<?xml version="1.0" encoding="UTF-8" standalone="no"?>
<svg
   xmlns:dc="http://purl.org/dc/elements/1.1/"
   xmlns:cc="http://creativecommons.org/ns#"
   xmlns:rdf="http://www.w3.org/1999/02/22-rdf-syntax-ns#"
   xmlns:svg="http://www.w3.org/2000/svg"
   xmlns="http://www.w3.org/2000/svg"
   id="svg4797"
   version="1.1"
   viewBox="0 0 227.92348 233.9588"
   height="233.9588mm"
   width="227.92348mm">
  <defs
     id="defs4791" />
  <metadata
     id="metadata4794">
    <rdf:RDF>
      <cc:Work
         rdf:about="">
        <dc:format>image/svg+xml</dc:format>
        <dc:type
           rdf:resource="http://purl.org/dc/dcmitype/StillImage" />
        <dc:title></dc:title>
      </cc:Work>
    </rdf:RDF>
  </metadata>
  <g
     transform="translate(8.1284041,-25.80631)"
     id="layer1">
    <g
       id="flowRoot4534"
       style="font-style:normal;font-weight:normal;font-size:40px;line-height:1.25;font-family:sans-serif;letter-spacing:0px;word-spacing:0px;fill:#f5801b;fill-opacity:1;stroke:none"
       transform="matrix(0.24056872,-0.11014096,0.11014096,0.24056872,-54.305596,74.280248)"
       aria-label="channel">
      <path
         id="path5392"
         style="font-style:normal;font-variant:normal;font-weight:bold;font-stretch:normal;font-size:266.66665649px;font-family:Calibri;-inkscape-font-specification:'Calibri Bold';fill:#f5801b;fill-opacity:1"
         d="m 162.86914,375.79361 q 0,3.38542 -0.26042,5.72917 -0.13021,2.21354 -0.52083,3.77604 -0.26042,1.5625 -0.78125,2.60417 -0.39063,0.91145 -1.95313,2.47395 -1.5625,1.4323 -5.33854,3.64584 -3.77604,2.08333 -8.59375,3.77604 -4.81771,1.69271 -10.54687,2.73437 -5.59896,1.04167 -11.58855,1.04167 -13.41145,0 -23.828119,-4.16667 -10.286458,-4.16666 -17.317708,-12.23958 -7.03125,-8.20312 -10.677083,-19.92187 -3.515625,-11.71875 -3.515625,-26.82292 0,-17.44791 4.296875,-30.07812 4.427083,-12.76042 12.239583,-21.09375 7.8125,-8.33333 18.489587,-12.36979 10.67708,-4.03646 23.43749,-4.03646 5.20834,0 10.15625,0.91146 5.07813,0.91146 9.375,2.47396 4.42709,1.5625 7.8125,3.51562 3.51563,1.95313 4.94792,3.38542 1.43229,1.43229 1.95313,2.47396 0.65104,0.91145 0.91145,2.47395 0.39063,1.5625 0.52084,3.90625 0.26041,2.21354 0.26041,5.46875 0,7.55209 -1.30208,10.67709 -1.30208,2.99479 -3.38542,2.99479 -2.21354,0 -4.6875,-1.82292 -2.47395,-1.82292 -5.85937,-4.03646 -3.38542,-2.21354 -8.07292,-4.03646 -4.6875,-1.82291 -11.19791,-1.82291 -12.76042,0 -19.53125,9.89583 -6.77084,9.76563 -6.77084,28.77604 0,9.375 1.69271,16.53646 1.69271,7.16146 4.94792,11.97917 3.38542,4.8177 8.33333,7.29166 5.07813,2.34375 11.71875,2.34375 6.77083,0 11.58854,-1.95312 4.94792,-2.08334 8.59375,-4.55729 3.64584,-2.47396 6.11979,-4.42709 2.47396,-2.08333 4.16667,-2.08333 1.17188,0 1.95313,0.65104 0.78125,0.65104 1.17187,2.47396 0.52083,1.69271 0.78125,4.42708 0.26042,2.73438 0.26042,7.03125 z" />
      <path
         id="path5394"
         style="font-style:normal;font-variant:normal;font-weight:bold;font-stretch:normal;font-size:266.66665649px;font-family:Calibri;-inkscape-font-specification:'Calibri Bold';fill:#f5801b;fill-opacity:1"
         d="m 297.37434,394.28319 q 0,1.30209 -0.78125,2.34375 -0.78125,0.91146 -2.60417,1.5625 -1.82291,0.65105 -5.07812,0.91146 -3.125,0.39063 -7.8125,0.39063 -4.81771,0 -8.07292,-0.39063 -3.125,-0.26041 -4.94791,-0.91146 -1.82292,-0.65104 -2.60417,-1.5625 -0.78125,-1.04166 -0.78125,-2.34375 v -66.27603 q 0,-8.46355 -1.30208,-13.28125 -1.17188,-4.81771 -3.51563,-8.20313 -2.34375,-3.51562 -6.11979,-5.33854 -3.64583,-1.95313 -8.59375,-1.95313 -6.25,0 -12.63021,4.5573 -6.38021,4.55729 -13.28125,13.28125 v 77.21353 q 0,1.30209 -0.78125,2.34375 -0.78125,0.91146 -2.73437,1.5625 -1.82292,0.65105 -4.94792,0.91146 -3.125,0.39063 -7.94271,0.39063 -4.81771,0 -7.94271,-0.39063 -3.125,-0.26041 -5.07812,-0.91146 -1.82292,-0.65104 -2.60417,-1.5625 -0.78125,-1.04166 -0.78125,-2.34375 V 223.05924 q 0,-1.30208 0.78125,-2.34375 0.78125,-1.04166 2.60417,-1.69271 1.95312,-0.78125 5.07812,-1.17187 3.125,-0.39063 7.94271,-0.39063 4.81771,0 7.94271,0.39063 3.125,0.39062 4.94792,1.17187 1.95312,0.65105 2.73437,1.69271 0.78125,1.04167 0.78125,2.34375 v 64.19271 q 8.46354,-8.33333 17.1875,-12.36979 8.85417,-4.16667 18.35938,-4.16667 11.84895,0 19.92187,3.90625 8.20312,3.90625 13.15104,10.67708 5.07813,6.77084 7.29167,15.88542 2.21354,8.98437 2.21354,21.875 z" />
      <path
         id="path5396"
         style="font-style:normal;font-variant:normal;font-weight:bold;font-stretch:normal;font-size:266.66665649px;font-family:Calibri;-inkscape-font-specification:'Calibri Bold';fill:#f5801b;fill-opacity:1"
         d="m 428.62433,394.67382 q 0,1.82292 -1.30208,2.86458 -1.30209,1.04167 -4.16667,1.43229 -2.73438,0.52084 -8.20313,0.52084 -5.85937,0 -8.59374,-0.52084 -2.60417,-0.39062 -3.77605,-1.43229 -1.04166,-1.04166 -1.04166,-2.86458 v -9.24479 q -7.16146,7.68229 -16.40625,11.97916 -9.11459,4.29688 -20.3125,4.29688 -9.24479,0 -17.05729,-2.47396 -7.68229,-2.34375 -13.41146,-7.03125 -5.59896,-4.81771 -8.72396,-11.84896 -3.125,-7.03125 -3.125,-16.40625 0,-10.15625 3.90625,-17.57812 4.03646,-7.55208 11.84896,-12.36979 7.94271,-4.94792 19.66146,-7.29167 11.71875,-2.34375 27.21354,-2.34375 h 11.32812 v -7.03125 q 0,-5.46875 -1.17187,-9.50521 -1.04167,-4.16666 -3.64584,-6.90104 -2.47395,-2.73437 -6.77083,-4.03646 -4.16667,-1.30208 -10.41667,-1.30208 -8.20312,0 -14.71354,1.82292 -6.3802,1.82291 -11.32812,4.03646 -4.94792,2.21354 -8.33333,4.03645 -3.25521,1.82292 -5.33855,1.82292 -1.43229,0 -2.60416,-0.91146 -1.04167,-0.91146 -1.82292,-2.60416 -0.65104,-1.69271 -1.04167,-4.16667 -0.39062,-2.47396 -0.39062,-5.46875 0,-4.03646 0.65104,-6.38021 0.65104,-2.34375 2.47396,-4.16666 1.82292,-1.95313 6.38021,-4.16667 4.55729,-2.34375 10.67708,-4.29688 6.11979,-1.95312 13.28125,-3.125 7.29167,-1.30208 14.97396,-1.30208 13.67187,0 23.30729,2.73438 9.76562,2.60416 16.01562,8.20312 6.25,5.46875 9.11459,14.19271 2.86458,8.72396 2.86458,20.70312 z m -32.16146,-49.73958 h -12.5 q -7.94271,0 -13.54166,1.17187 -5.59896,1.17188 -9.11459,3.51563 -3.51562,2.34375 -5.20833,5.72916 -1.5625,3.25521 -1.5625,7.55209 0,7.29166 4.55729,11.45833 4.6875,4.16667 12.89063,4.16667 6.90104,0 12.6302,-3.51563 5.85938,-3.51562 11.84896,-10.28646 z" />
      <path
         id="path5398"
         style="font-style:normal;font-variant:normal;font-weight:bold;font-stretch:normal;font-size:266.66665649px;font-family:Calibri;-inkscape-font-specification:'Calibri Bold';fill:#f5801b;fill-opacity:1"
         d="m 572.37432,394.28319 q 0,1.30209 -0.78125,2.34375 -0.78125,0.91146 -2.60416,1.5625 -1.82292,0.65105 -5.07813,0.91146 -3.125,0.39063 -7.8125,0.39063 -4.81771,0 -8.07291,-0.39063 -3.125,-0.26041 -4.94792,-0.91146 -1.82292,-0.65104 -2.60417,-1.5625 -0.78125,-1.04166 -0.78125,-2.34375 v -66.27603 q 0,-8.46355 -1.30208,-13.28125 -1.17187,-4.81771 -3.51562,-8.20313 -2.34375,-3.51562 -6.1198,-5.33854 -3.64583,-1.95313 -8.59375,-1.95313 -6.25,0 -12.6302,4.5573 -6.38021,4.55729 -13.28125,13.28125 v 77.21353 q 0,1.30209 -0.78125,2.34375 -0.78125,0.91146 -2.73438,1.5625 -1.82291,0.65105 -4.94791,0.91146 -3.125,0.39063 -7.94271,0.39063 -4.81771,0 -7.94271,-0.39063 -3.125,-0.26041 -5.07813,-0.91146 -1.82291,-0.65104 -2.60416,-1.5625 -0.78125,-1.04166 -0.78125,-2.34375 V 278.13737 q 0,-1.30209 0.65104,-2.21355 0.65104,-1.04166 2.34375,-1.6927 1.69271,-0.65105 4.29687,-0.91146 2.73438,-0.39063 6.77084,-0.39063 4.16666,0 6.90104,0.39063 2.73437,0.26041 4.16667,0.91146 1.5625,0.65104 2.21354,1.6927 0.65104,0.91146 0.65104,2.21355 v 13.41145 q 9.63541,-10.41666 19.53125,-15.625 10.02604,-5.20833 20.83333,-5.20833 11.84896,0 19.92187,3.90625 8.20313,3.90625 13.15105,10.67708 5.07812,6.64063 7.29166,15.625 2.21354,8.98438 2.21354,21.61459 z" />
      <path
         id="path5400"
         style="font-style:normal;font-variant:normal;font-weight:bold;font-stretch:normal;font-size:266.66665649px;font-family:Calibri;-inkscape-font-specification:'Calibri Bold';fill:#f5801b;fill-opacity:1"
         d="m 715.60351,394.28319 q 0,1.30209 -0.78125,2.34375 -0.78125,0.91146 -2.60417,1.5625 -1.82291,0.65105 -5.07812,0.91146 -3.125,0.39063 -7.8125,0.39063 -4.81771,0 -8.07292,-0.39063 -3.125,-0.26041 -4.94791,-0.91146 -1.82292,-0.65104 -2.60417,-1.5625 -0.78125,-1.04166 -0.78125,-2.34375 v -66.27603 q 0,-8.46355 -1.30208,-13.28125 -1.17188,-4.81771 -3.51563,-8.20313 -2.34375,-3.51562 -6.11979,-5.33854 -3.64583,-1.95313 -8.59375,-1.95313 -6.25,0 -12.63021,4.5573 -6.3802,4.55729 -13.28125,13.28125 v 77.21353 q 0,1.30209 -0.78125,2.34375 -0.78125,0.91146 -2.73437,1.5625 -1.82292,0.65105 -4.94792,0.91146 -3.125,0.39063 -7.94271,0.39063 -4.8177,0 -7.9427,-0.39063 -3.125,-0.26041 -5.07813,-0.91146 -1.82292,-0.65104 -2.60417,-1.5625 -0.78125,-1.04166 -0.78125,-2.34375 V 278.13737 q 0,-1.30209 0.65105,-2.21355 0.65104,-1.04166 2.34375,-1.6927 1.6927,-0.65105 4.29687,-0.91146 2.73438,-0.39063 6.77083,-0.39063 4.16667,0 6.90105,0.39063 2.73437,0.26041 4.16666,0.91146 1.5625,0.65104 2.21354,1.6927 0.65105,0.91146 0.65105,2.21355 v 13.41145 q 9.63541,-10.41666 19.53124,-15.625 10.02605,-5.20833 20.83334,-5.20833 11.84896,0 19.92187,3.90625 8.20313,3.90625 13.15104,10.67708 5.07813,6.64063 7.29167,15.625 2.21354,8.98438 2.21354,21.61459 z" />
      <path
         id="path5402"
         style="font-style:normal;font-variant:normal;font-weight:bold;font-stretch:normal;font-size:266.66665649px;font-family:Calibri;-inkscape-font-specification:'Calibri Bold';fill:#f5801b;fill-opacity:1"
         d="m 855.1868,332.82486 q 0,5.98959 -2.73437,8.85417 -2.60417,2.86458 -7.29167,2.86458 h -70.70312 q 0,7.42188 1.69271,13.54167 1.82291,5.98958 5.59896,10.28646 3.90625,4.16666 9.89583,6.38021 6.11979,2.21354 14.58333,2.21354 8.59375,0 15.10417,-1.17188 6.51041,-1.30208 11.19791,-2.73437 4.81771,-1.5625 7.94271,-2.73438 3.125,-1.30208 5.07813,-1.30208 1.17187,0 1.95312,0.52083 0.78125,0.39063 1.30209,1.5625 0.52083,1.17188 0.65104,3.38542 0.26041,2.08333 0.26041,5.33854 0,2.86458 -0.1302,4.94792 -0.13021,1.95312 -0.39063,3.38541 -0.26042,1.43229 -0.78125,2.47396 -0.52083,0.91146 -1.43229,1.82292 -0.78125,0.91146 -4.55729,2.47396 -3.77604,1.5625 -9.63542,3.125 -5.85937,1.43229 -13.41146,2.47395 -7.55208,1.17188 -16.14583,1.17188 -15.49479,0 -27.21354,-3.90625 -11.58854,-3.90625 -19.40104,-11.84896 -7.8125,-7.94271 -11.71875,-20.05208 -3.77604,-12.10938 -3.77604,-28.38542 0,-15.49479 4.03646,-27.86458 4.03645,-12.5 11.71875,-21.09375 7.68229,-8.72396 18.61979,-13.28125 11.0677,-4.55729 24.86979,-4.55729 14.58333,0 24.86979,4.29688 10.41666,4.29687 17.05729,11.97916 6.64062,7.55208 9.76562,17.96875 3.125,10.41667 3.125,22.65625 z m -31.77083,-9.375 q 0.39063,-13.80208 -5.59896,-21.61458 -5.85937,-7.94271 -18.22916,-7.94271 -6.25,0 -10.9375,2.34375 -4.55729,2.34375 -7.68229,6.38021 -2.9948,3.90625 -4.6875,9.375 -1.5625,5.33854 -1.82292,11.45833 z" />
      <path
         id="path5404"
         style="font-style:normal;font-variant:normal;font-weight:bold;font-stretch:normal;font-size:266.66665649px;font-family:Calibri;-inkscape-font-specification:'Calibri Bold';fill:#f5801b;fill-opacity:1"
         d="m 915.08264,394.28319 q 0,1.30209 -0.78125,2.34375 -0.78125,0.91146 -2.73438,1.5625 -1.82291,0.65105 -4.94791,0.91146 -3.125,0.39063 -7.94271,0.39063 -4.81771,0 -7.94271,-0.39063 -3.125,-0.26041 -5.07812,-0.91146 -1.82292,-0.65104 -2.60417,-1.5625 -0.78125,-1.04166 -0.78125,-2.34375 V 223.05924 q 0,-1.30208 0.78125,-2.34375 0.78125,-1.04166 2.60417,-1.69271 1.95312,-0.78125 5.07812,-1.17187 3.125,-0.39063 7.94271,-0.39063 4.81771,0 7.94271,0.39063 3.125,0.39062 4.94791,1.17187 1.95313,0.65105 2.73438,1.69271 0.78125,1.04167 0.78125,2.34375 z" />
    </g>
    <g
       id="flowRoot4534-4"
       style="font-style:normal;font-weight:normal;font-size:40px;line-height:1.25;font-family:sans-serif;letter-spacing:0px;word-spacing:0px;fill:#f5801b;fill-opacity:1;stroke:none"
       transform="matrix(0.24056872,-0.11014096,0.11014096,0.24056872,27.518934,173.87193)"
       aria-label="add">
      <path
         id="path4753"
         style="font-style:normal;font-variant:normal;font-weight:bold;font-stretch:normal;font-size:266.66665649px;font-family:Calibri;-inkscape-font-specification:'Calibri Bold';fill:#f5801b;fill-opacity:1"
         d="m 173.93684,394.67382 q 0,1.82292 -1.30208,2.86458 -1.30208,1.04167 -4.16667,1.43229 -2.73437,0.52084 -8.20312,0.52084 -5.85937,0 -8.59375,-0.52084 -2.60417,-0.39062 -3.77604,-1.43229 -1.04167,-1.04166 -1.04167,-2.86458 v -9.24479 q -7.16146,7.68229 -16.40625,11.97916 -9.11458,4.29688 -20.3125,4.29688 -9.24479,0 -17.057287,-2.47396 -7.682292,-2.34375 -13.411458,-7.03125 -5.598958,-4.81771 -8.723958,-11.84896 -3.125,-7.03125 -3.125,-16.40625 0,-10.15625 3.90625,-17.57812 4.036458,-7.55208 11.848958,-12.36979 7.942708,-4.94792 19.661455,-7.29167 11.71875,-2.34375 27.21354,-2.34375 h 11.32813 v -7.03125 q 0,-5.46875 -1.17188,-9.50521 -1.04166,-4.16666 -3.64583,-6.90104 -2.47396,-2.73437 -6.77083,-4.03646 -4.16667,-1.30208 -10.41667,-1.30208 -8.20312,0 -14.71354,1.82292 -6.380209,1.82291 -11.328126,4.03646 -4.947916,2.21354 -8.333333,4.03645 -3.255208,1.82292 -5.338541,1.82292 -1.432292,0 -2.604167,-0.91146 -1.041666,-0.91146 -1.822916,-2.60416 -0.651042,-1.69271 -1.041667,-4.16667 -0.390625,-2.47396 -0.390625,-5.46875 0,-4.03646 0.651042,-6.38021 0.651041,-2.34375 2.473958,-4.16666 1.822917,-1.95313 6.380208,-4.16667 4.557291,-2.34375 10.677083,-4.29688 6.119794,-1.95312 13.281254,-3.125 7.29166,-1.30208 14.97395,-1.30208 13.67188,0 23.30729,2.73438 9.76563,2.60416 16.01563,8.20312 6.25,5.46875 9.11458,14.19271 2.86458,8.72396 2.86458,20.70312 z m -32.16145,-49.73958 h -12.5 q -7.94271,0 -13.54167,1.17187 -5.59896,1.17188 -9.11458,3.51563 -3.51563,2.34375 -5.20833,5.72916 -1.562504,3.25521 -1.562504,7.55209 0,7.29166 4.557294,11.45833 4.6875,4.16667 12.89062,4.16667 6.90104,0 12.63021,-3.51563 5.85937,-3.51562 11.84896,-10.28646 z" />
      <path
         id="path4755"
         style="font-style:normal;font-variant:normal;font-weight:bold;font-stretch:normal;font-size:266.66665649px;font-family:Calibri;-inkscape-font-specification:'Calibri Bold';fill:#f5801b;fill-opacity:1"
         d="m 316.90559,394.28319 q 0,1.4323 -0.65104,2.47396 -0.65104,0.91146 -2.21354,1.5625 -1.5625,0.65104 -4.29688,0.91146 -2.60417,0.26042 -6.51042,0.26042 -4.16666,0 -6.77083,-0.26042 -2.60417,-0.26042 -4.29687,-0.91146 -1.5625,-0.65104 -2.34375,-1.5625 -0.65104,-1.04166 -0.65104,-2.47396 v -12.89062 q -8.98438,9.63542 -18.88021,14.97396 -9.76563,5.33854 -21.74479,5.33854 -13.28125,0 -22.52604,-5.07813 -9.11459,-5.20833 -14.97396,-13.93229 -5.72917,-8.72395 -8.33333,-20.3125 -2.60417,-11.71875 -2.60417,-24.60937 0,-15.49479 3.25521,-27.86458 3.38541,-12.36979 9.76562,-21.09375 6.38021,-8.72396 15.88542,-13.41146 9.50521,-4.6875 21.875,-4.6875 9.76562,0 17.70833,4.03646 7.94271,3.90625 15.75521,11.58854 v -62.89062 q 0,-1.30209 0.65104,-2.34375 0.78125,-1.04167 2.60417,-1.69271 1.95312,-0.78125 5.07812,-1.17188 3.125,-0.39062 7.94271,-0.39062 4.81771,0 7.94271,0.39062 3.125,0.39063 4.94791,1.17188 1.82292,0.65104 2.60417,1.69271 0.78125,1.04166 0.78125,2.34375 z m -32.55208,-77.60416 q -7.03125,-8.85417 -13.54167,-13.54167 -6.38021,-4.6875 -13.41146,-4.6875 -6.38021,0 -11.0677,3.25521 -4.5573,3.125 -7.42188,8.46354 -2.73437,5.33855 -4.16667,11.97917 -1.30208,6.51042 -1.30208,13.41146 0,7.29166 1.17188,14.19271 1.17187,6.90104 3.77604,12.36979 2.73437,5.33854 7.16146,8.59375 4.42708,3.25521 11.19791,3.25521 3.38542,0 6.51042,-0.91146 3.25521,-1.04167 6.51041,-3.25521 3.38542,-2.21354 6.90105,-5.72917 3.51562,-3.64583 7.68229,-8.85416 z" />
      <path
         id="path4757"
         style="font-style:normal;font-variant:normal;font-weight:bold;font-stretch:normal;font-size:266.66665649px;font-family:Calibri;-inkscape-font-specification:'Calibri Bold';fill:#f5801b;fill-opacity:1"
         d="m 460.13476,394.28319 q 0,1.4323 -0.65104,2.47396 -0.65104,0.91146 -2.21354,1.5625 -1.5625,0.65104 -4.29688,0.91146 -2.60416,0.26042 -6.51041,0.26042 -4.16667,0 -6.77084,-0.26042 -2.60416,-0.26042 -4.29687,-0.91146 -1.5625,-0.65104 -2.34375,-1.5625 -0.65104,-1.04166 -0.65104,-2.47396 v -12.89062 q -8.98438,9.63542 -18.88021,14.97396 -9.76563,5.33854 -21.74479,5.33854 -13.28125,0 -22.52604,-5.07813 -9.11459,-5.20833 -14.97396,-13.93229 -5.72917,-8.72395 -8.33333,-20.3125 -2.60417,-11.71875 -2.60417,-24.60937 0,-15.49479 3.25521,-27.86458 3.38541,-12.36979 9.76562,-21.09375 6.38021,-8.72396 15.88542,-13.41146 9.50521,-4.6875 21.875,-4.6875 9.76562,0 17.70833,4.03646 7.94271,3.90625 15.75521,11.58854 v -62.89062 q 0,-1.30209 0.65104,-2.34375 0.78125,-1.04167 2.60417,-1.69271 1.95312,-0.78125 5.07812,-1.17188 3.125,-0.39062 7.94271,-0.39062 4.81771,0 7.94271,0.39062 3.125,0.39063 4.94791,1.17188 1.82292,0.65104 2.60417,1.69271 0.78125,1.04166 0.78125,2.34375 z m -32.55208,-77.60416 q -7.03125,-8.85417 -13.54167,-13.54167 -6.38021,-4.6875 -13.41146,-4.6875 -6.3802,0 -11.0677,3.25521 -4.55729,3.125 -7.42188,8.46354 -2.73437,5.33855 -4.16666,11.97917 -1.30209,6.51042 -1.30209,13.41146 0,7.29166 1.17188,14.19271 1.17187,6.90104 3.77604,12.36979 2.73437,5.33854 7.16146,8.59375 4.42708,3.25521 11.19791,3.25521 3.38542,0 6.51042,-0.91146 3.25521,-1.04167 6.51042,-3.25521 3.38541,-2.21354 6.90104,-5.72917 3.51562,-3.64583 7.68229,-8.85416 z" />
    </g>
    <g
       transform="translate(-102.69417,24.574222)"
       id="g4670">
      <rect
         style="fill:#ddbfff;fill-opacity:1;stroke:#000000;stroke-width:0.52916664;stroke-miterlimit:4;stroke-dasharray:none;stroke-opacity:1"
         id="rect4574-8"
         width="91.092255"
         height="48.75893"
         x="231.1324"
         y="78.90773" />
      <ellipse
         style="fill:#ffffff;fill-opacity:1;stroke:#000000;stroke-width:0.52916664;stroke-miterlimit:4;stroke-dasharray:none;stroke-opacity:1"
         id="path4576-6"
         cx="276.11157"
         cy="103.66516"
         rx="14.741072"
         ry="15.308036" />
      <path
         style="fill:none;stroke:#000000;stroke-width:1.20000005;stroke-linecap:butt;stroke-linejoin:miter;stroke-miterlimit:4;stroke-dasharray:none;stroke-opacity:1"
         d="m 275.7336,97.806535 v 12.986175 0.99894"
         id="path4578-6" />
      <path
         style="fill:none;stroke:#000000;stroke-width:1.20000005;stroke-linecap:butt;stroke-linejoin:miter;stroke-miterlimit:4;stroke-dasharray:none;stroke-opacity:1"
         d="m 268.36306,104.23215 h 12.98618 0.99894"
         id="path4578-1-1" />
    </g>
    <g
       transform="translate(-196.24334,-23.050768)"
       id="g4680">
      <rect
         style="fill:#c7fffe;fill-opacity:1;stroke:#000000;stroke-width:0.52916664;stroke-miterlimit:4;stroke-dasharray:none;stroke-opacity:1"
         id="rect4574-3"
         width="91.092255"
         height="48.75893"
         x="258.91367"
         y="161.30655" />
      <ellipse
         style="fill:#ffffff;fill-opacity:1;stroke:#000000;stroke-width:0.52916664;stroke-miterlimit:4;stroke-dasharray:none;stroke-opacity:1"
         id="path4576-9"
         cx="303.89285"
         cy="186.06398"
         rx="14.741072"
         ry="15.308036" />
      <path
         style="fill:none;stroke:#000000;stroke-width:1.20000005;stroke-linecap:butt;stroke-linejoin:miter;stroke-miterlimit:4;stroke-dasharray:none;stroke-opacity:1"
         d="m 303.51487,180.20535 v 12.98618 0.99894"
         id="path4578-8" />
      <path
         style="fill:none;stroke:#000000;stroke-width:1.20000005;stroke-linecap:butt;stroke-linejoin:miter;stroke-miterlimit:4;stroke-dasharray:none;stroke-opacity:1"
         d="m 296.14433,186.63096 h 12.98618 0.99894"
         id="path4578-1-6" />
    </g>
    <g
       id="g4619"
       transform="translate(-10.279056,34.023629)">
      <rect
         style="fill:#c6ffbf;fill-opacity:1;stroke:#000000;stroke-width:0.52916664;stroke-miterlimit:4;stroke-dasharray:none;stroke-opacity:1"
         id="rect4574"
         width="91.092255"
         height="48.75893"
         x="10.961308"
         y="138.62798" />
      <ellipse
         style="fill:#ffffff;fill-opacity:1;stroke:#000000;stroke-width:0.52916664;stroke-miterlimit:4;stroke-dasharray:none;stroke-opacity:1"
         id="path4576"
         cx="55.940475"
         cy="163.38541"
         rx="14.741072"
         ry="15.308036" />
      <path
         style="fill:none;stroke:#000000;stroke-width:1.20000005;stroke-linecap:butt;stroke-linejoin:miter;stroke-miterlimit:4;stroke-dasharray:none;stroke-opacity:1"
         d="m 55.562501,157.52678 v 12.98618 0.99894"
         id="path4578" />
      <path
         style="fill:none;stroke:#000000;stroke-width:1.20000005;stroke-linecap:butt;stroke-linejoin:miter;stroke-miterlimit:4;stroke-dasharray:none;stroke-opacity:1"
         d="m 48.191963,163.95239 h 12.98618 0.99894"
         id="path4578-1" />
    </g>
  </g>
</svg>
