<?xml version="1.0" encoding="UTF-8" standalone="no"?>
<svg
   xmlns:dc="http://purl.org/dc/elements/1.1/"
   xmlns:cc="http://creativecommons.org/ns#"
   xmlns:rdf="http://www.w3.org/1999/02/22-rdf-syntax-ns#"
   xmlns:svg="http://www.w3.org/2000/svg"
   xmlns="http://www.w3.org/2000/svg"
   id="svg5744"
   version="1.1"
   viewBox="0 0 200.00001 100"
   height="100mm"
   width="200mm">
  <defs
     id="defs5738" />
  <metadata
     id="metadata5741">
    <rdf:RDF>
      <cc:Work
         rdf:about="">
        <dc:format>image/svg+xml</dc:format>
        <dc:type
           rdf:resource="http://purl.org/dc/dcmitype/StillImage" />
        <dc:title></dc:title>
      </cc:Work>
    </rdf:RDF>
  </metadata>
  <g
     transform="translate(-54.378577,-61.069442)"
     id="layer1">
    <path
       transform="matrix(0.46655593,-0.2859604,0.35800096,0.37267084,80.159439,77.536657)"
       d="m 34.926542,48.254333 c -0.897728,0.67795 -10.232065,1.890081 -11.276811,1.42528 -1.044747,-0.464801 -6.701425,-7.954432 -6.809147,-9.086341 -0.107722,-1.131909 3.233901,-9.738253 4.130684,-10.41505 0.896782,-0.676797 10.278331,-1.680893 11.301263,-1.215928 1.022932,0.464965 6.613836,7.75581 6.784695,8.876989 0.170859,1.121179 -3.232955,9.737101 -4.130684,10.41505 z"
       id="path5699"
       style="fill:#312d2b;fill-opacity:0.73488375;stroke:#000000;stroke-width:0.5;stroke-linejoin:round;stroke-miterlimit:4;stroke-dasharray:none;stroke-opacity:1" />
    <path
       transform="matrix(0.46655593,-0.2859604,0.35800096,0.37267084,85.189039,78.762041)"
       d="m 20.029863,38.826655 c -0.526484,0.0014 -1.930144,-4.42475 -2.351442,-4.83416 -0.421297,-0.409409 -2.693377,-3.060695 -2.467769,-3.61566 0.225608,-0.554965 5.445598,-3.701947 5.920197,-4.024808 0.474599,-0.322861 4.045806,-1.046846 4.41105,-0.650327 0.365245,0.396519 3.743751,5.247415 3.884611,5.801809 0.14086,0.554394 -1.765447,5.584633 -2.211924,5.905174 -0.446477,0.320541 -6.658238,1.41662 -7.184723,1.417972 z"
       id="path5716"
       style="fill:#54372b;fill-opacity:0.73488375;stroke:#000000;stroke-width:0.5;stroke-linejoin:round;stroke-miterlimit:4;stroke-dasharray:none;stroke-opacity:1" />
    <path
       transform="matrix(1.0776081,-0.50643768,0.5024969,1.0860591,114.55834,110.83853)"
       d="m 34.926542,48.254333 c -0.897728,0.67795 -10.232065,1.890081 -11.276811,1.42528 -1.044747,-0.464801 -6.701425,-7.954432 -6.809147,-9.086341 -0.107722,-1.131909 3.233901,-9.738253 4.130684,-10.41505 0.896782,-0.676797 10.278331,-1.680893 11.301263,-1.215928 1.022932,0.464965 6.613836,7.75581 6.784695,8.876989 0.170859,1.121179 -3.232955,9.737101 -4.130684,10.41505 z"
       id="path5699-4"
       style="fill:#312d2b;fill-opacity:0.73488375;stroke:#000000;stroke-width:0.5;stroke-linejoin:round;stroke-miterlimit:4;stroke-dasharray:none;stroke-opacity:1" />
    <path
       transform="matrix(0.94330423,-0.7294993,0.7238228,0.950702,119.66706,125.449)"
       d="m 20.029863,38.826655 c -0.526484,0.0014 -1.930145,-4.42475 -2.351442,-4.834159 -0.421297,-0.40941 -2.693377,-3.060697 -2.46777,-3.615661 0.225608,-0.554965 5.445599,-3.701947 5.920198,-4.024808 0.474599,-0.322862 4.045806,-1.046847 4.411051,-0.650328 0.365244,0.39652 3.743751,5.247416 3.884611,5.80181 0.14086,0.554394 -1.765447,5.584633 -2.211924,5.905174 -0.446477,0.320541 -6.658239,1.41662 -7.184724,1.417972 z"
       id="path5716-4"
       style="fill:#54372b;fill-opacity:0.73488375;stroke:#000000;stroke-width:0.5;stroke-linejoin:round;stroke-miterlimit:4;stroke-dasharray:none;stroke-opacity:1" />
    <path
       transform="rotate(-75,122.69307,19.001293)"
       d="m 34.926542,48.254333 c -0.897728,0.67795 -10.232065,1.890081 -11.276811,1.42528 -1.044747,-0.464801 -6.701425,-7.954432 -6.809147,-9.086341 -0.107722,-1.131909 3.233901,-9.738253 4.130684,-10.41505 0.896782,-0.676797 10.278331,-1.680893 11.301263,-1.215928 1.022932,0.464965 6.613836,7.75581 6.784695,8.876989 0.170859,1.121179 -3.232955,9.737101 -4.130684,10.41505 z"
       id="path5699-8"
       style="fill:#312d2b;fill-opacity:0.73488375;stroke:#000000;stroke-width:0.5;stroke-linejoin:round;stroke-miterlimit:4;stroke-dasharray:none;stroke-opacity:1" />
    <path
       transform="rotate(-112.5,98.16065,42.333181)"
       d="m 20.029863,38.826655 c -0.526484,0.0014 -1.930145,-4.42475 -2.351442,-4.834159 -0.421297,-0.40941 -2.693377,-3.060697 -2.46777,-3.615661 0.225608,-0.554965 5.445599,-3.701947 5.920198,-4.024808 0.474599,-0.322862 4.045806,-1.046847 4.411051,-0.650328 0.365244,0.39652 3.743751,5.247416 3.884611,5.80181 0.14086,0.554394 -1.765447,5.584633 -2.211924,5.905174 -0.446477,0.320541 -6.658239,1.41662 -7.184724,1.417972 z"
       id="path5716-1"
       style="fill:#54372b;fill-opacity:0.73488375;stroke:#000000;stroke-width:0.5;stroke-linejoin:round;stroke-miterlimit:4;stroke-dasharray:none;stroke-opacity:1" />
    <path
       transform="matrix(0.86124099,0,0,0.66122969,124.52903,55.184731)"
       d="m 34.926542,48.254333 c -0.897728,0.67795 -10.232065,1.890081 -11.276811,1.42528 -1.044747,-0.464801 -6.701425,-7.954432 -6.809147,-9.086341 -0.107722,-1.131909 3.233901,-9.738253 4.130684,-10.41505 0.896782,-0.676797 10.278331,-1.680893 11.301263,-1.215928 1.022932,0.464965 6.613836,7.75581 6.784695,8.876989 0.170859,1.121179 -3.232955,9.737101 -4.130684,10.41505 z"
       id="path5699-86"
       style="fill:#312d2b;fill-opacity:0.73488375;stroke:#000000;stroke-width:0.5;stroke-linejoin:round;stroke-miterlimit:4;stroke-dasharray:none;stroke-opacity:1" />
    <path
       transform="matrix(0.76167731,-0.15674626,0.16885979,0.70703671,125.1809,61.578449)"
       d="m 20.029863,38.826655 c -0.526484,0.0014 -1.930145,-4.42475 -2.351442,-4.834159 -0.421297,-0.40941 -2.693377,-3.060697 -2.46777,-3.615661 0.225608,-0.554965 5.445599,-3.701947 5.920198,-4.024808 0.474599,-0.322862 4.045806,-1.046847 4.411051,-0.650328 0.365244,0.39652 3.743751,5.247416 3.884611,5.80181 0.14086,0.554394 -1.765447,5.584633 -2.211924,5.905174 -0.446477,0.320541 -6.658239,1.41662 -7.184724,1.417972 z"
       id="path5716-49"
       style="fill:#54372b;fill-opacity:0.73488375;stroke:#000000;stroke-width:0.5;stroke-linejoin:round;stroke-miterlimit:4;stroke-dasharray:none;stroke-opacity:1" />
    <path
       transform="matrix(0.50659682,0,0,0.46346353,90.609601,126.83699)"
       d="m 34.926542,48.254333 c -0.897728,0.67795 -10.232065,1.890081 -11.276811,1.42528 -1.044747,-0.464801 -6.701425,-7.954432 -6.809147,-9.086341 -0.107722,-1.131909 3.233901,-9.738253 4.130684,-10.41505 0.896782,-0.676797 10.278331,-1.680893 11.301263,-1.215928 1.022932,0.464965 6.613836,7.75581 6.784695,8.876989 0.170859,1.121179 -3.232955,9.737101 -4.130684,10.41505 z"
       id="path5699-0"
       style="fill:#312d2b;fill-opacity:0.73488375;stroke:#000000;stroke-width:0.5;stroke-linejoin:round;stroke-miterlimit:4;stroke-dasharray:none;stroke-opacity:1" />
    <path
       transform="matrix(-0.290572,-0.3796471,0.41497982,-0.26583176,97.622151,162.20565)"
       d="m 20.029863,38.826655 c -0.526484,0.0014 -1.930145,-4.42475 -2.351442,-4.834159 -0.421297,-0.40941 -2.693377,-3.060697 -2.46777,-3.615661 0.225608,-0.554965 5.445599,-3.701947 5.920198,-4.024808 0.474599,-0.322862 4.045806,-1.046847 4.411051,-0.650328 0.365244,0.39652 3.743751,5.247416 3.884611,5.80181 0.14086,0.554394 -1.765447,5.584633 -2.211924,5.905174 -0.446477,0.320541 -6.658239,1.41662 -7.184724,1.417972 z"
       id="path5716-9"
       style="fill:#54372b;fill-opacity:0.73488375;stroke:#000000;stroke-width:0.5;stroke-linejoin:round;stroke-miterlimit:4;stroke-dasharray:none;stroke-opacity:1" />
    <path
       transform="rotate(-62.5,148.45188,-32.694137)"
       d="m 34.926542,48.254333 c -0.897728,0.67795 -10.232065,1.890081 -11.276811,1.42528 -1.044747,-0.464801 -6.701425,-7.954432 -6.809147,-9.086341 -0.107722,-1.131909 3.233901,-9.738253 4.130684,-10.41505 0.896782,-0.676797 10.278331,-1.680893 11.301263,-1.215928 1.022932,0.464965 6.613836,7.75581 6.784695,8.876989 0.170859,1.121179 -3.232955,9.737101 -4.130684,10.41505 z"
       id="path5699-02"
       style="fill:#312d2b;fill-opacity:0.73488375;stroke:#000000;stroke-width:0.5;stroke-linejoin:round;stroke-miterlimit:4;stroke-dasharray:none;stroke-opacity:1" />
    <path
       transform="rotate(172.5,86.860252,74.641754)"
       d="m 20.029863,38.826655 c -0.526484,0.0014 -1.930145,-4.42475 -2.351442,-4.834159 -0.421297,-0.40941 -2.693377,-3.060697 -2.46777,-3.615661 0.225608,-0.554965 5.445599,-3.701947 5.920198,-4.024808 0.474599,-0.322862 4.045806,-1.046847 4.411051,-0.650328 0.365244,0.39652 3.743751,5.247416 3.884611,5.80181 0.14086,0.554394 -1.765447,5.584633 -2.211924,5.905174 -0.446477,0.320541 -6.658239,1.41662 -7.184724,1.417972 z"
       id="path5716-92"
       style="fill:#54372b;fill-opacity:0.73488375;stroke:#000000;stroke-width:0.5;stroke-linejoin:round;stroke-miterlimit:4;stroke-dasharray:none;stroke-opacity:1" />
    <path
       transform="rotate(-12.5,354.26987,-653.74334)"
       d="m 34.926542,48.254333 c -0.897728,0.67795 -10.232065,1.890081 -11.276811,1.42528 -1.044747,-0.464801 -6.701425,-7.954432 -6.809147,-9.086341 -0.107722,-1.131909 3.233901,-9.738253 4.130684,-10.41505 0.896782,-0.676797 10.278331,-1.680893 11.301263,-1.215928 1.022932,0.464965 6.613836,7.75581 6.784695,8.876989 0.170859,1.121179 -3.232955,9.737101 -4.130684,10.41505 z"
       id="path5699-03"
       style="fill:#312d2b;fill-opacity:0.73488375;stroke:#000000;stroke-width:0.5;stroke-linejoin:round;stroke-miterlimit:4;stroke-dasharray:none;stroke-opacity:1" />
    <path
       transform="rotate(-12.5,384.88983,-681.10883)"
       d="m 20.029863,38.826655 c -0.526484,0.0014 -1.930145,-4.42475 -2.351442,-4.834159 -0.421297,-0.40941 -2.693377,-3.060697 -2.46777,-3.615661 0.225608,-0.554965 5.445599,-3.701947 5.920198,-4.024808 0.474599,-0.322862 4.045806,-1.046847 4.411051,-0.650328 0.365244,0.39652 3.743751,5.247416 3.884611,5.80181 0.14086,0.554394 -1.765447,5.584633 -2.211924,5.905174 -0.446477,0.320541 -6.658239,1.41662 -7.184724,1.417972 z"
       id="path5716-3"
       style="fill:#54372b;fill-opacity:0.73488375;stroke:#000000;stroke-width:0.5;stroke-linejoin:round;stroke-miterlimit:4;stroke-dasharray:none;stroke-opacity:1" />
    <path
       transform="matrix(0.50659681,0,0,0.46346353,180.9467,113.33988)"
       d="m 34.926542,48.254333 c -0.897728,0.67795 -10.232065,1.890081 -11.276811,1.42528 -1.044747,-0.464801 -6.701425,-7.954432 -6.809147,-9.086341 -0.107722,-1.131909 3.233901,-9.738253 4.130684,-10.41505 0.896782,-0.676797 10.278331,-1.680893 11.301263,-1.215928 1.022932,0.464965 6.613836,7.75581 6.784695,8.876989 0.170859,1.121179 -3.232955,9.737101 -4.130684,10.41505 z"
       id="path5699-0-8"
       style="fill:#312d2b;fill-opacity:0.73488375;stroke:#000000;stroke-width:0.5;stroke-linejoin:round;stroke-miterlimit:4;stroke-dasharray:none;stroke-opacity:1" />
    <path
       transform="matrix(-0.290572,-0.37964711,0.41497983,-0.26583177,187.95925,148.70854)"
       d="m 20.029863,38.826655 c -0.526484,0.0014 -1.930145,-4.42475 -2.351442,-4.834159 -0.421297,-0.40941 -2.693377,-3.060697 -2.46777,-3.615661 0.225608,-0.554965 5.445599,-3.701947 5.920198,-4.024808 0.474599,-0.322862 4.045806,-1.046847 4.411051,-0.650328 0.365244,0.39652 3.743751,5.247416 3.884611,5.80181 0.14086,0.554394 -1.765447,5.584633 -2.211924,5.905174 -0.446477,0.320541 -6.658239,1.41662 -7.184724,1.417972 z"
       id="path5716-9-7"
       style="fill:#54372b;fill-opacity:0.73488375;stroke:#000000;stroke-width:0.5;stroke-linejoin:round;stroke-miterlimit:4;stroke-dasharray:none;stroke-opacity:1" />
    <path
       transform="matrix(0.50659681,0,0,0.46346353,113.59478,50.798809)"
       d="m 34.926542,48.254333 c -0.897728,0.67795 -10.232065,1.890081 -11.276811,1.42528 -1.044747,-0.464801 -6.701425,-7.954432 -6.809147,-9.086341 -0.107722,-1.131909 3.233901,-9.738253 4.130684,-10.41505 0.896782,-0.676797 10.278331,-1.680893 11.301263,-1.215928 1.022932,0.464965 6.613836,7.75581 6.784695,8.876989 0.170859,1.121179 -3.232955,9.737101 -4.130684,10.41505 z"
       id="path5699-0-4"
       style="fill:#312d2b;fill-opacity:0.73488375;stroke:#000000;stroke-width:0.5;stroke-linejoin:round;stroke-miterlimit:4;stroke-dasharray:none;stroke-opacity:1" />
    <path
       transform="matrix(-0.290572,-0.37964711,0.41497983,-0.26583177,120.60733,86.167469)"
       d="m 20.029863,38.826655 c -0.526484,0.0014 -1.930145,-4.42475 -2.351442,-4.834159 -0.421297,-0.40941 -2.693377,-3.060697 -2.46777,-3.615661 0.225608,-0.554965 5.445599,-3.701947 5.920198,-4.024808 0.474599,-0.322862 4.045806,-1.046847 4.411051,-0.650328 0.365244,0.39652 3.743751,5.247416 3.884611,5.80181 0.14086,0.554394 -1.765447,5.584633 -2.211924,5.905174 -0.446477,0.320541 -6.658239,1.41662 -7.184724,1.417972 z"
       id="path5716-9-1"
       style="fill:#54372b;fill-opacity:0.73488375;stroke:#000000;stroke-width:0.5;stroke-linejoin:round;stroke-miterlimit:4;stroke-dasharray:none;stroke-opacity:1" />
    <path
       transform="matrix(0.68326843,-0.5242903,0.40253113,0.52458878,100.1713,140.7495)"
       d="m 34.926542,48.254333 c -0.897728,0.67795 -10.232065,1.890081 -11.276811,1.42528 -1.044747,-0.464801 -6.701425,-7.954432 -6.809147,-9.086341 -0.107722,-1.131909 3.233901,-9.738253 4.130684,-10.41505 0.896782,-0.676797 10.278331,-1.680893 11.301263,-1.215928 1.022932,0.464965 6.613836,7.75581 6.784695,8.876989 0.170859,1.121179 -3.232955,9.737101 -4.130684,10.41505 z"
       id="path5699-86-9"
       style="fill:#312d2b;fill-opacity:0.73488375;stroke:#000000;stroke-width:0.5;stroke-linejoin:round;stroke-miterlimit:4;stroke-dasharray:none;stroke-opacity:1" />
    <path
       transform="matrix(0.50885816,-0.58803494,0.56438215,0.45813461,104.58072,145.42514)"
       d="m 20.029863,38.826655 c -0.526484,0.0014 -1.930145,-4.42475 -2.351442,-4.834159 -0.421297,-0.40941 -2.693377,-3.060697 -2.46777,-3.615661 0.225608,-0.554965 5.445599,-3.701947 5.920198,-4.024808 0.474599,-0.322862 4.045806,-1.046847 4.411051,-0.650328 0.365244,0.39652 3.743751,5.247416 3.884611,5.80181 0.14086,0.554394 -1.765447,5.584633 -2.211924,5.905174 -0.446477,0.320541 -6.658239,1.41662 -7.184724,1.417972 z"
       id="path5716-49-2"
       style="fill:#54372b;fill-opacity:0.73488375;stroke:#000000;stroke-width:0.5;stroke-linejoin:round;stroke-miterlimit:4;stroke-dasharray:none;stroke-opacity:1" />
    <path
       transform="matrix(1.0776081,-0.50643769,0.5024969,1.0860591,31.543537,72.122172)"
       d="m 34.926542,48.254333 c -0.897728,0.67795 -10.232065,1.890081 -11.276811,1.42528 -1.044747,-0.464801 -6.701425,-7.954432 -6.809147,-9.086341 -0.107722,-1.131909 3.233901,-9.738253 4.130684,-10.41505 0.896782,-0.676797 10.278331,-1.680893 11.301263,-1.215928 1.022932,0.464965 6.613836,7.75581 6.784695,8.876989 0.170859,1.121179 -3.232955,9.737101 -4.130684,10.41505 z"
       id="path5699-4-3"
       style="fill:#312d2b;fill-opacity:0.73488375;stroke:#000000;stroke-width:0.5;stroke-linejoin:round;stroke-miterlimit:4;stroke-dasharray:none;stroke-opacity:1" />
    <path
       transform="matrix(0.94330422,-0.7294993,0.72382279,0.950702,36.652257,86.732642)"
       d="m 20.029863,38.826655 c -0.526484,0.0014 -1.930145,-4.42475 -2.351442,-4.834159 -0.421297,-0.40941 -2.693377,-3.060697 -2.46777,-3.615661 0.225608,-0.554965 5.445599,-3.701947 5.920198,-4.024808 0.474599,-0.322862 4.045806,-1.046847 4.411051,-0.650328 0.365244,0.39652 3.743751,5.247416 3.884611,5.80181 0.14086,0.554394 -1.765447,5.584633 -2.211924,5.905174 -0.446477,0.320541 -6.658239,1.41662 -7.184724,1.417972 z"
       id="path5716-4-1"
       style="fill:#54372b;fill-opacity:0.73488375;stroke:#000000;stroke-width:0.5;stroke-linejoin:round;stroke-miterlimit:4;stroke-dasharray:none;stroke-opacity:1" />
    <path
       transform="rotate(-75,192.37755,-31.585628)"
       d="m 34.926542,48.254333 c -0.897728,0.67795 -10.232065,1.890081 -11.276811,1.42528 -1.044747,-0.464801 -6.701425,-7.954432 -6.809147,-9.086341 -0.107722,-1.131909 3.233901,-9.738253 4.130684,-10.41505 0.896782,-0.676797 10.278331,-1.680893 11.301263,-1.215928 1.022932,0.464965 6.613836,7.75581 6.784695,8.876989 0.170859,1.121179 -3.232955,9.737101 -4.130684,10.41505 z"
       id="path5699-8-2"
       style="fill:#312d2b;fill-opacity:0.73488375;stroke:#000000;stroke-width:0.5;stroke-linejoin:round;stroke-miterlimit:4;stroke-dasharray:none;stroke-opacity:1" />
    <path
       transform="rotate(-112.5,158.37787,23.661176)"
       d="m 20.029863,38.826655 c -0.526484,0.0014 -1.930145,-4.42475 -2.351442,-4.834159 -0.421297,-0.40941 -2.693377,-3.060697 -2.46777,-3.615661 0.225608,-0.554965 5.445599,-3.701947 5.920198,-4.024808 0.474599,-0.322862 4.045806,-1.046847 4.411051,-0.650328 0.365244,0.39652 3.743751,5.247416 3.884611,5.80181 0.14086,0.554394 -1.765447,5.584633 -2.211924,5.905174 -0.446477,0.320541 -6.658239,1.41662 -7.184724,1.417972 z"
       id="path5716-1-7"
       style="fill:#54372b;fill-opacity:0.73488375;stroke:#000000;stroke-width:0.5;stroke-linejoin:round;stroke-miterlimit:4;stroke-dasharray:none;stroke-opacity:1" />
    <path
       transform="matrix(0.50659681,0,0,0.46346353,208.06378,84.317132)"
       d="m 34.926542,48.254333 c -0.897728,0.67795 -10.232065,1.890081 -11.276811,1.42528 -1.044747,-0.464801 -6.701425,-7.954432 -6.809147,-9.086341 -0.107722,-1.131909 3.233901,-9.738253 4.130684,-10.41505 0.896782,-0.676797 10.278331,-1.680893 11.301263,-1.215928 1.022932,0.464965 6.613836,7.75581 6.784695,8.876989 0.170859,1.121179 -3.232955,9.737101 -4.130684,10.41505 z"
       id="path5699-0-4-3"
       style="fill:#312d2b;fill-opacity:0.73488375;stroke:#000000;stroke-width:0.5;stroke-linejoin:round;stroke-miterlimit:4;stroke-dasharray:none;stroke-opacity:1" />
    <path
       transform="matrix(-0.290572,-0.37964711,0.41497983,-0.26583177,215.07634,119.68579)"
       d="m 20.029863,38.826655 c -0.526484,0.0014 -1.930145,-4.42475 -2.351442,-4.834159 -0.421297,-0.40941 -2.693377,-3.060697 -2.46777,-3.615661 0.225608,-0.554965 5.445599,-3.701947 5.920198,-4.024808 0.474599,-0.322862 4.045806,-1.046847 4.411051,-0.650328 0.365244,0.39652 3.743751,5.247416 3.884611,5.80181 0.14086,0.554394 -1.765447,5.584633 -2.211924,5.905174 -0.446477,0.320541 -6.658239,1.41662 -7.184724,1.417972 z"
       id="path5716-9-1-9"
       style="fill:#54372b;fill-opacity:0.73488375;stroke:#000000;stroke-width:0.5;stroke-linejoin:round;stroke-miterlimit:4;stroke-dasharray:none;stroke-opacity:1" />
    <path
       transform="rotate(-75,117.30241,55.79682)"
       d="m 34.926542,48.254333 c -0.897728,0.67795 -10.232065,1.890081 -11.276811,1.42528 -1.044747,-0.464801 -6.701425,-7.954432 -6.809147,-9.086341 -0.107722,-1.131909 3.233901,-9.738253 4.130684,-10.41505 0.896782,-0.676797 10.278331,-1.680893 11.301263,-1.215928 1.022932,0.464965 6.613836,7.75581 6.784695,8.876989 0.170859,1.121179 -3.232955,9.737101 -4.130684,10.41505 z"
       id="path5699-8-8"
       style="fill:#312d2b;fill-opacity:0.73488375;stroke:#000000;stroke-width:0.5;stroke-linejoin:round;stroke-miterlimit:4;stroke-dasharray:none;stroke-opacity:1" />
    <path
       transform="rotate(-112.5,85.763784,66.57472)"
       d="m 20.029863,38.826655 c -0.526484,0.0014 -1.930145,-4.42475 -2.351442,-4.834159 -0.421297,-0.40941 -2.693377,-3.060697 -2.46777,-3.615661 0.225608,-0.554965 5.445599,-3.701947 5.920198,-4.024808 0.474599,-0.322862 4.045806,-1.046847 4.411051,-0.650328 0.365244,0.39652 3.743751,5.247416 3.884611,5.80181 0.14086,0.554394 -1.765447,5.584633 -2.211924,5.905174 -0.446477,0.320541 -6.658239,1.41662 -7.184724,1.417972 z"
       id="path5716-1-8"
       style="fill:#54372b;fill-opacity:0.73488375;stroke:#000000;stroke-width:0.5;stroke-linejoin:round;stroke-miterlimit:4;stroke-dasharray:none;stroke-opacity:1" />
    <path
       transform="matrix(0.50659681,0,0,0.46346353,216.08187,58.659253)"
       d="m 34.926542,48.254333 c -0.897728,0.67795 -10.232065,1.890081 -11.276811,1.42528 -1.044747,-0.464801 -6.701425,-7.954432 -6.809147,-9.086341 -0.107722,-1.131909 3.233901,-9.738253 4.130684,-10.41505 0.896782,-0.676797 10.278331,-1.680893 11.301263,-1.215928 1.022932,0.464965 6.613836,7.75581 6.784695,8.876989 0.170859,1.121179 -3.232955,9.737101 -4.130684,10.41505 z"
       id="path5699-0-5"
       style="fill:#312d2b;fill-opacity:0.73488375;stroke:#000000;stroke-width:0.5;stroke-linejoin:round;stroke-miterlimit:4;stroke-dasharray:none;stroke-opacity:1" />
    <path
       transform="matrix(-0.290572,-0.37964711,0.41497983,-0.26583177,223.09442,94.027923)"
       d="m 20.029863,38.826655 c -0.526484,0.0014 -1.930145,-4.42475 -2.351442,-4.834159 -0.421297,-0.40941 -2.693377,-3.060697 -2.46777,-3.615661 0.225608,-0.554965 5.445599,-3.701947 5.920198,-4.024808 0.474599,-0.322862 4.045806,-1.046847 4.411051,-0.650328 0.365244,0.39652 3.743751,5.247416 3.884611,5.80181 0.14086,0.554394 -1.765447,5.584633 -2.211924,5.905174 -0.446477,0.320541 -6.658239,1.41662 -7.184724,1.417972 z"
       id="path5716-9-2"
       style="fill:#54372b;fill-opacity:0.73488375;stroke:#000000;stroke-width:0.5;stroke-linejoin:round;stroke-miterlimit:4;stroke-dasharray:none;stroke-opacity:1" />
    <path
       transform="matrix(0.50659681,0,0,0.46346353,47.167531,52.244789)"
       d="m 34.926542,48.254333 c -0.897728,0.67795 -10.232065,1.890081 -11.276811,1.42528 -1.044747,-0.464801 -6.701425,-7.954432 -6.809147,-9.086341 -0.107722,-1.131909 3.233901,-9.738253 4.130684,-10.41505 0.896782,-0.676797 10.278331,-1.680893 11.301263,-1.215928 1.022932,0.464965 6.613836,7.75581 6.784695,8.876989 0.170859,1.121179 -3.232955,9.737101 -4.130684,10.41505 z"
       id="path5699-0-2"
       style="fill:#312d2b;fill-opacity:0.73488375;stroke:#000000;stroke-width:0.5;stroke-linejoin:round;stroke-miterlimit:4;stroke-dasharray:none;stroke-opacity:1" />
    <path
       transform="matrix(-0.290572,-0.37964711,0.41497983,-0.26583177,54.180082,87.613446)"
       d="m 20.029863,38.826655 c -0.526484,0.0014 -1.930145,-4.42475 -2.351442,-4.834159 -0.421297,-0.40941 -2.693377,-3.060697 -2.46777,-3.615661 0.225608,-0.554965 5.445599,-3.701947 5.920198,-4.024808 0.474599,-0.322862 4.045806,-1.046847 4.411051,-0.650328 0.365244,0.39652 3.743751,5.247416 3.884611,5.80181 0.14086,0.554394 -1.765447,5.584633 -2.211924,5.905174 -0.446477,0.320541 -6.658239,1.41662 -7.184724,1.417972 z"
       id="path5716-9-6"
       style="fill:#54372b;fill-opacity:0.73488375;stroke:#000000;stroke-width:0.5;stroke-linejoin:round;stroke-miterlimit:4;stroke-dasharray:none;stroke-opacity:1" />
    <path
       transform="matrix(0.46655593,-0.2859604,0.35800096,0.37267084,220.26789,121.00245)"
       d="m 34.926542,48.254333 c -0.897728,0.67795 -10.232065,1.890081 -11.276811,1.42528 -1.044747,-0.464801 -6.701425,-7.954432 -6.809147,-9.086341 -0.107722,-1.131909 3.233901,-9.738253 4.130684,-10.41505 0.896782,-0.676797 10.278331,-1.680893 11.301263,-1.215928 1.022932,0.464965 6.613836,7.75581 6.784695,8.876989 0.170859,1.121179 -3.232955,9.737101 -4.130684,10.41505 z"
       id="path5699-01"
       style="fill:#312d2b;fill-opacity:0.73488375;stroke:#000000;stroke-width:0.5;stroke-linejoin:round;stroke-miterlimit:4;stroke-dasharray:none;stroke-opacity:1" />
    <path
       transform="matrix(0.46655593,-0.2859604,0.35800096,0.37267084,225.29749,122.22784)"
       d="m 20.029863,38.826655 c -0.526484,0.0014 -1.930144,-4.42475 -2.351442,-4.83416 -0.421297,-0.409409 -2.693377,-3.060695 -2.467769,-3.61566 0.225608,-0.554965 5.445598,-3.701947 5.920197,-4.024808 0.474599,-0.322861 4.045806,-1.046846 4.41105,-0.650327 0.365245,0.396519 3.743751,5.247415 3.884611,5.801809 0.14086,0.554394 -1.765447,5.584633 -2.211924,5.905174 -0.446477,0.320541 -6.658238,1.41662 -7.184723,1.417972 z"
       id="path5716-97"
       style="fill:#54372b;fill-opacity:0.73488375;stroke:#000000;stroke-width:0.5;stroke-linejoin:round;stroke-miterlimit:4;stroke-dasharray:none;stroke-opacity:1" />
    <path
       transform="matrix(0.50659681,0,0,0.46346353,190.95854,53.313868)"
       d="m 34.926542,48.254333 c -0.897728,0.67795 -10.232065,1.890081 -11.276811,1.42528 -1.044747,-0.464801 -6.701425,-7.954432 -6.809147,-9.086341 -0.107722,-1.131909 3.233901,-9.738253 4.130684,-10.41505 0.896782,-0.676797 10.278331,-1.680893 11.301263,-1.215928 1.022932,0.464965 6.613836,7.75581 6.784695,8.876989 0.170859,1.121179 -3.232955,9.737101 -4.130684,10.41505 z"
       id="path5699-0-8-1"
       style="fill:#312d2b;fill-opacity:0.73488375;stroke:#000000;stroke-width:0.5;stroke-linejoin:round;stroke-miterlimit:4;stroke-dasharray:none;stroke-opacity:1" />
    <path
       transform="matrix(-0.290572,-0.37964711,0.41497983,-0.26583177,197.97109,88.682528)"
       d="m 20.029863,38.826655 c -0.526484,0.0014 -1.930145,-4.42475 -2.351442,-4.834159 -0.421297,-0.40941 -2.693377,-3.060697 -2.46777,-3.615661 0.225608,-0.554965 5.445599,-3.701947 5.920198,-4.024808 0.474599,-0.322862 4.045806,-1.046847 4.411051,-0.650328 0.365244,0.39652 3.743751,5.247416 3.884611,5.80181 0.14086,0.554394 -1.765447,5.584633 -2.211924,5.905174 -0.446477,0.320541 -6.658239,1.41662 -7.184724,1.417972 z"
       id="path5716-9-7-7"
       style="fill:#54372b;fill-opacity:0.73488375;stroke:#000000;stroke-width:0.5;stroke-linejoin:round;stroke-miterlimit:4;stroke-dasharray:none;stroke-opacity:1" />
    <path
       transform="matrix(1.445254,0,0,0.59077128,-56.639549,39.256639)"
       d="m 121.99777,99.06291 -0.97571,-12.800153 11.57311,5.555092 z"
       id="path6585"
       style="fill:#fb0000;fill-opacity:0.98604647;stroke:#00e5ff;stroke-width:0.5;stroke-linejoin:round;stroke-miterlimit:4;stroke-dasharray:none;stroke-opacity:1" />
  </g>
</svg>
