<?xml version="1.0" encoding="UTF-8" standalone="no"?>
<svg
   xmlns:dc="http://purl.org/dc/elements/1.1/"
   xmlns:cc="http://creativecommons.org/ns#"
   xmlns:rdf="http://www.w3.org/1999/02/22-rdf-syntax-ns#"
   xmlns:svg="http://www.w3.org/2000/svg"
   xmlns="http://www.w3.org/2000/svg"
   id="svg5744"
   version="1.1"
   viewBox="0 0 120 100"
   height="100mm"
   width="120mm">
  <defs
     id="defs5738" />
  <metadata
     id="metadata5741">
    <rdf:RDF>
      <cc:Work
         rdf:about="">
        <dc:format>image/svg+xml</dc:format>
        <dc:type
           rdf:resource="http://purl.org/dc/dcmitype/StillImage" />
        <dc:title></dc:title>
      </cc:Work>
    </rdf:RDF>
  </metadata>
  <g
     transform="translate(-45.291413,-66.949372)"
     id="layer1">
    <path
       transform="matrix(0.46655593,-0.2859604,0.35800096,0.37267084,35.525428,83.951126)"
       d="m 34.926542,48.254333 c -0.897728,0.67795 -10.232065,1.890081 -11.276811,1.42528 -1.044747,-0.464801 -6.701425,-7.954432 -6.809147,-9.086341 -0.107722,-1.131909 3.233901,-9.738253 4.130684,-10.41505 0.896782,-0.676797 10.278331,-1.680893 11.301263,-1.215928 1.022932,0.464965 6.613836,7.75581 6.784695,8.876989 0.170859,1.121179 -3.232955,9.737101 -4.130684,10.41505 z"
       id="path5699"
       style="fill:#312d2b;fill-opacity:0.73488375;stroke:#000000;stroke-width:0.5;stroke-linejoin:round;stroke-miterlimit:4;stroke-dasharray:none;stroke-opacity:1" />
    <path
       transform="matrix(0.46655593,-0.2859604,0.35800096,0.37267084,40.555028,85.17651)"
       d="m 20.029863,38.826655 c -0.526484,0.0014 -1.930144,-4.42475 -2.351442,-4.83416 -0.421297,-0.409409 -2.693377,-3.060695 -2.467769,-3.61566 0.225608,-0.554965 5.445598,-3.701947 5.920197,-4.024808 0.474599,-0.322861 4.045806,-1.046846 4.41105,-0.650327 0.365245,0.396519 3.743751,5.247415 3.884611,5.801809 0.14086,0.554394 -1.765447,5.584633 -2.211924,5.905174 -0.446477,0.320541 -6.658238,1.41662 -7.184723,1.417972 z"
       id="path5716"
       style="fill:#54372b;fill-opacity:0.73488375;stroke:#000000;stroke-width:0.5;stroke-linejoin:round;stroke-miterlimit:4;stroke-dasharray:none;stroke-opacity:1" />
    <path
       transform="matrix(1.0776081,-0.50643768,0.5024969,1.0860591,69.924325,117.253)"
       d="m 34.926542,48.254333 c -0.897728,0.67795 -10.232065,1.890081 -11.276811,1.42528 -1.044747,-0.464801 -6.701425,-7.954432 -6.809147,-9.086341 -0.107722,-1.131909 3.233901,-9.738253 4.130684,-10.41505 0.896782,-0.676797 10.278331,-1.680893 11.301263,-1.215928 1.022932,0.464965 6.613836,7.75581 6.784695,8.876989 0.170859,1.121179 -3.232955,9.737101 -4.130684,10.41505 z"
       id="path5699-4"
       style="fill:#312d2b;fill-opacity:0.73488375;stroke:#000000;stroke-width:0.5;stroke-linejoin:round;stroke-miterlimit:4;stroke-dasharray:none;stroke-opacity:1" />
    <path
       transform="matrix(0.94330423,-0.7294993,0.7238228,0.950702,75.033046,131.86347)"
       d="m 20.029863,38.826655 c -0.526484,0.0014 -1.930145,-4.42475 -2.351442,-4.834159 -0.421297,-0.40941 -2.693377,-3.060697 -2.46777,-3.615661 0.225608,-0.554965 5.445599,-3.701947 5.920198,-4.024808 0.474599,-0.322862 4.045806,-1.046847 4.411051,-0.650328 0.365244,0.39652 3.743751,5.247416 3.884611,5.80181 0.14086,0.554394 -1.765447,5.584633 -2.211924,5.905174 -0.446477,0.320541 -6.658239,1.41662 -7.184724,1.417972 z"
       id="path5716-4"
       style="fill:#54372b;fill-opacity:0.73488375;stroke:#000000;stroke-width:0.5;stroke-linejoin:round;stroke-miterlimit:4;stroke-dasharray:none;stroke-opacity:1" />
    <path
       transform="rotate(-75,104.55581,51.292615)"
       d="m 34.926542,48.254333 c -0.897728,0.67795 -10.232065,1.890081 -11.276811,1.42528 -1.044747,-0.464801 -6.701425,-7.954432 -6.809147,-9.086341 -0.107722,-1.131909 3.233901,-9.738253 4.130684,-10.41505 0.896782,-0.676797 10.278331,-1.680893 11.301263,-1.215928 1.022932,0.464965 6.613836,7.75581 6.784695,8.876989 0.170859,1.121179 -3.232955,9.737101 -4.130684,10.41505 z"
       id="path5699-8"
       style="fill:#312d2b;fill-opacity:0.73488375;stroke:#000000;stroke-width:0.5;stroke-linejoin:round;stroke-miterlimit:4;stroke-dasharray:none;stroke-opacity:1" />
    <path
       transform="rotate(-112.5,77.98665,60.452162)"
       d="m 20.029863,38.826655 c -0.526484,0.0014 -1.930145,-4.42475 -2.351442,-4.834159 -0.421297,-0.40941 -2.693377,-3.060697 -2.46777,-3.615661 0.225608,-0.554965 5.445599,-3.701947 5.920198,-4.024808 0.474599,-0.322862 4.045806,-1.046847 4.411051,-0.650328 0.365244,0.39652 3.743751,5.247416 3.884611,5.80181 0.14086,0.554394 -1.765447,5.584633 -2.211924,5.905174 -0.446477,0.320541 -6.658239,1.41662 -7.184724,1.417972 z"
       id="path5716-1"
       style="fill:#54372b;fill-opacity:0.73488375;stroke:#000000;stroke-width:0.5;stroke-linejoin:round;stroke-miterlimit:4;stroke-dasharray:none;stroke-opacity:1" />
    <path
       transform="matrix(0.86124099,0,0,0.66122969,79.895017,61.5992)"
       d="m 34.926542,48.254333 c -0.897728,0.67795 -10.232065,1.890081 -11.276811,1.42528 -1.044747,-0.464801 -6.701425,-7.954432 -6.809147,-9.086341 -0.107722,-1.131909 3.233901,-9.738253 4.130684,-10.41505 0.896782,-0.676797 10.278331,-1.680893 11.301263,-1.215928 1.022932,0.464965 6.613836,7.75581 6.784695,8.876989 0.170859,1.121179 -3.232955,9.737101 -4.130684,10.41505 z"
       id="path5699-86"
       style="fill:#312d2b;fill-opacity:0.73488375;stroke:#000000;stroke-width:0.5;stroke-linejoin:round;stroke-miterlimit:4;stroke-dasharray:none;stroke-opacity:1" />
    <path
       transform="matrix(0.76167731,-0.15674626,0.16885979,0.70703671,80.546893,67.992918)"
       d="m 20.029863,38.826655 c -0.526484,0.0014 -1.930145,-4.42475 -2.351442,-4.834159 -0.421297,-0.40941 -2.693377,-3.060697 -2.46777,-3.615661 0.225608,-0.554965 5.445599,-3.701947 5.920198,-4.024808 0.474599,-0.322862 4.045806,-1.046847 4.411051,-0.650328 0.365244,0.39652 3.743751,5.247416 3.884611,5.80181 0.14086,0.554394 -1.765447,5.584633 -2.211924,5.905174 -0.446477,0.320541 -6.658239,1.41662 -7.184724,1.417972 z"
       id="path5716-49"
       style="fill:#54372b;fill-opacity:0.73488375;stroke:#000000;stroke-width:0.5;stroke-linejoin:round;stroke-miterlimit:4;stroke-dasharray:none;stroke-opacity:1" />
    <path
       transform="matrix(0.50659682,0,0,0.46346353,45.97559,133.25146)"
       d="m 34.926542,48.254333 c -0.897728,0.67795 -10.232065,1.890081 -11.276811,1.42528 -1.044747,-0.464801 -6.701425,-7.954432 -6.809147,-9.086341 -0.107722,-1.131909 3.233901,-9.738253 4.130684,-10.41505 0.896782,-0.676797 10.278331,-1.680893 11.301263,-1.215928 1.022932,0.464965 6.613836,7.75581 6.784695,8.876989 0.170859,1.121179 -3.232955,9.737101 -4.130684,10.41505 z"
       id="path5699-0"
       style="fill:#312d2b;fill-opacity:0.73488375;stroke:#000000;stroke-width:0.5;stroke-linejoin:round;stroke-miterlimit:4;stroke-dasharray:none;stroke-opacity:1" />
    <path
       transform="matrix(-0.290572,-0.3796471,0.41497982,-0.26583176,52.98814,168.62012)"
       d="m 20.029863,38.826655 c -0.526484,0.0014 -1.930145,-4.42475 -2.351442,-4.834159 -0.421297,-0.40941 -2.693377,-3.060697 -2.46777,-3.615661 0.225608,-0.554965 5.445599,-3.701947 5.920198,-4.024808 0.474599,-0.322862 4.045806,-1.046847 4.411051,-0.650328 0.365244,0.39652 3.743751,5.247416 3.884611,5.80181 0.14086,0.554394 -1.765447,5.584633 -2.211924,5.905174 -0.446477,0.320541 -6.658239,1.41662 -7.184724,1.417972 z"
       id="path5716-9"
       style="fill:#54372b;fill-opacity:0.73488375;stroke:#000000;stroke-width:0.5;stroke-linejoin:round;stroke-miterlimit:4;stroke-dasharray:none;stroke-opacity:1" />
    <path
       transform="rotate(-62.5,131.74407,13.211878)"
       d="m 34.926542,48.254333 c -0.897728,0.67795 -10.232065,1.890081 -11.276811,1.42528 -1.044747,-0.464801 -6.701425,-7.954432 -6.809147,-9.086341 -0.107722,-1.131909 3.233901,-9.738253 4.130684,-10.41505 0.896782,-0.676797 10.278331,-1.680893 11.301263,-1.215928 1.022932,0.464965 6.613836,7.75581 6.784695,8.876989 0.170859,1.121179 -3.232955,9.737101 -4.130684,10.41505 z"
       id="path5699-02"
       style="fill:#312d2b;fill-opacity:0.73488375;stroke:#000000;stroke-width:0.5;stroke-linejoin:round;stroke-miterlimit:4;stroke-dasharray:none;stroke-opacity:1" />
    <path
       transform="rotate(172.5,61.822501,77.832212)"
       d="m 20.029863,38.826655 c -0.526484,0.0014 -1.930145,-4.42475 -2.351442,-4.834159 -0.421297,-0.40941 -2.693377,-3.060697 -2.46777,-3.615661 0.225608,-0.554965 5.445599,-3.701947 5.920198,-4.024808 0.474599,-0.322862 4.045806,-1.046847 4.411051,-0.650328 0.365244,0.39652 3.743751,5.247416 3.884611,5.80181 0.14086,0.554394 -1.765447,5.584633 -2.211924,5.905174 -0.446477,0.320541 -6.658239,1.41662 -7.184724,1.417972 z"
       id="path5716-92"
       style="fill:#54372b;fill-opacity:0.73488375;stroke:#000000;stroke-width:0.5;stroke-linejoin:round;stroke-miterlimit:4;stroke-dasharray:none;stroke-opacity:1" />
    <path
       transform="rotate(-12.5,361.23791,-446.76098)"
       d="m 34.926542,48.254333 c -0.897728,0.67795 -10.232065,1.890081 -11.276811,1.42528 -1.044747,-0.464801 -6.701425,-7.954432 -6.809147,-9.086341 -0.107722,-1.131909 3.233901,-9.738253 4.130684,-10.41505 0.896782,-0.676797 10.278331,-1.680893 11.301263,-1.215928 1.022932,0.464965 6.613836,7.75581 6.784695,8.876989 0.170859,1.121179 -3.232955,9.737101 -4.130684,10.41505 z"
       id="path5699-03"
       style="fill:#312d2b;fill-opacity:0.73488375;stroke:#000000;stroke-width:0.5;stroke-linejoin:round;stroke-miterlimit:4;stroke-dasharray:none;stroke-opacity:1" />
    <path
       transform="rotate(-12.5,391.85787,-474.12647)"
       d="m 20.029863,38.826655 c -0.526484,0.0014 -1.930145,-4.42475 -2.351442,-4.834159 -0.421297,-0.40941 -2.693377,-3.060697 -2.46777,-3.615661 0.225608,-0.554965 5.445599,-3.701947 5.920198,-4.024808 0.474599,-0.322862 4.045806,-1.046847 4.411051,-0.650328 0.365244,0.39652 3.743751,5.247416 3.884611,5.80181 0.14086,0.554394 -1.765447,5.584633 -2.211924,5.905174 -0.446477,0.320541 -6.658239,1.41662 -7.184724,1.417972 z"
       id="path5716-3"
       style="fill:#54372b;fill-opacity:0.73488375;stroke:#000000;stroke-width:0.5;stroke-linejoin:round;stroke-miterlimit:4;stroke-dasharray:none;stroke-opacity:1" />
    <path
       transform="matrix(0.50659681,0,0,0.46346353,136.31269,119.75435)"
       d="m 34.926542,48.254333 c -0.897728,0.67795 -10.232065,1.890081 -11.276811,1.42528 -1.044747,-0.464801 -6.701425,-7.954432 -6.809147,-9.086341 -0.107722,-1.131909 3.233901,-9.738253 4.130684,-10.41505 0.896782,-0.676797 10.278331,-1.680893 11.301263,-1.215928 1.022932,0.464965 6.613836,7.75581 6.784695,8.876989 0.170859,1.121179 -3.232955,9.737101 -4.130684,10.41505 z"
       id="path5699-0-8"
       style="fill:#312d2b;fill-opacity:0.73488375;stroke:#000000;stroke-width:0.5;stroke-linejoin:round;stroke-miterlimit:4;stroke-dasharray:none;stroke-opacity:1" />
    <path
       transform="matrix(-0.290572,-0.37964711,0.41497983,-0.26583177,143.32524,155.12301)"
       d="m 20.029863,38.826655 c -0.526484,0.0014 -1.930145,-4.42475 -2.351442,-4.834159 -0.421297,-0.40941 -2.693377,-3.060697 -2.46777,-3.615661 0.225608,-0.554965 5.445599,-3.701947 5.920198,-4.024808 0.474599,-0.322862 4.045806,-1.046847 4.411051,-0.650328 0.365244,0.39652 3.743751,5.247416 3.884611,5.80181 0.14086,0.554394 -1.765447,5.584633 -2.211924,5.905174 -0.446477,0.320541 -6.658239,1.41662 -7.184724,1.417972 z"
       id="path5716-9-7"
       style="fill:#54372b;fill-opacity:0.73488375;stroke:#000000;stroke-width:0.5;stroke-linejoin:round;stroke-miterlimit:4;stroke-dasharray:none;stroke-opacity:1" />
    <path
       transform="matrix(0.50659681,0,0,0.46346353,68.960769,57.213278)"
       d="m 34.926542,48.254333 c -0.897728,0.67795 -10.232065,1.890081 -11.276811,1.42528 -1.044747,-0.464801 -6.701425,-7.954432 -6.809147,-9.086341 -0.107722,-1.131909 3.233901,-9.738253 4.130684,-10.41505 0.896782,-0.676797 10.278331,-1.680893 11.301263,-1.215928 1.022932,0.464965 6.613836,7.75581 6.784695,8.876989 0.170859,1.121179 -3.232955,9.737101 -4.130684,10.41505 z"
       id="path5699-0-4"
       style="fill:#312d2b;fill-opacity:0.73488375;stroke:#000000;stroke-width:0.5;stroke-linejoin:round;stroke-miterlimit:4;stroke-dasharray:none;stroke-opacity:1" />
    <path
       transform="matrix(-0.290572,-0.37964711,0.41497983,-0.26583177,75.97332,92.581938)"
       d="m 20.029863,38.826655 c -0.526484,0.0014 -1.930145,-4.42475 -2.351442,-4.834159 -0.421297,-0.40941 -2.693377,-3.060697 -2.46777,-3.615661 0.225608,-0.554965 5.445599,-3.701947 5.920198,-4.024808 0.474599,-0.322862 4.045806,-1.046847 4.411051,-0.650328 0.365244,0.39652 3.743751,5.247416 3.884611,5.80181 0.14086,0.554394 -1.765447,5.584633 -2.211924,5.905174 -0.446477,0.320541 -6.658239,1.41662 -7.184724,1.417972 z"
       id="path5716-9-1"
       style="fill:#54372b;fill-opacity:0.73488375;stroke:#000000;stroke-width:0.5;stroke-linejoin:round;stroke-miterlimit:4;stroke-dasharray:none;stroke-opacity:1" />
    <path
       transform="matrix(0.68326843,-0.5242903,0.40253113,0.52458878,55.537289,147.16397)"
       d="m 34.926542,48.254333 c -0.897728,0.67795 -10.232065,1.890081 -11.276811,1.42528 -1.044747,-0.464801 -6.701425,-7.954432 -6.809147,-9.086341 -0.107722,-1.131909 3.233901,-9.738253 4.130684,-10.41505 0.896782,-0.676797 10.278331,-1.680893 11.301263,-1.215928 1.022932,0.464965 6.613836,7.75581 6.784695,8.876989 0.170859,1.121179 -3.232955,9.737101 -4.130684,10.41505 z"
       id="path5699-86-9"
       style="fill:#312d2b;fill-opacity:0.73488375;stroke:#000000;stroke-width:0.5;stroke-linejoin:round;stroke-miterlimit:4;stroke-dasharray:none;stroke-opacity:1" />
    <path
       transform="matrix(0.50885816,-0.58803494,0.56438215,0.45813461,59.946708,151.83961)"
       d="m 20.029863,38.826655 c -0.526484,0.0014 -1.930145,-4.42475 -2.351442,-4.834159 -0.421297,-0.40941 -2.693377,-3.060697 -2.46777,-3.615661 0.225608,-0.554965 5.445599,-3.701947 5.920198,-4.024808 0.474599,-0.322862 4.045806,-1.046847 4.411051,-0.650328 0.365244,0.39652 3.743751,5.247416 3.884611,5.80181 0.14086,0.554394 -1.765447,5.584633 -2.211924,5.905174 -0.446477,0.320541 -6.658239,1.41662 -7.184724,1.417972 z"
       id="path5716-49-2"
       style="fill:#54372b;fill-opacity:0.73488375;stroke:#000000;stroke-width:0.5;stroke-linejoin:round;stroke-miterlimit:4;stroke-dasharray:none;stroke-opacity:1" />
  </g>
</svg>
